<svg xmlns="http://www.w3.org/2000/svg" xmlns:xlink="http://www.w3.org/1999/xlink" width="500" zoomAndPan="magnify" viewBox="0 0 375 374.999991" height="500" preserveAspectRatio="xMidYMid meet" version="1.2"><defs><clipPath id="c086e092ef"><path d="M 20.167969 23.894531 L 355 23.894531 L 355 351.105469 L 20.167969 351.105469 Z M 20.167969 23.894531 "/></clipPath><clipPath id="fe4ecab12d"><path d="M 81.667969 23.894531 L 293.332031 23.894531 C 327.300781 23.894531 354.832031 51.429688 354.832031 85.394531 L 354.832031 289.605469 C 354.832031 323.570312 327.300781 351.105469 293.332031 351.105469 L 81.667969 351.105469 C 47.699219 351.105469 20.167969 323.570312 20.167969 289.605469 L 20.167969 85.394531 C 20.167969 51.429688 47.699219 23.894531 81.667969 23.894531 Z M 81.667969 23.894531 "/></clipPath></defs><g id="fb587d6299"><g clip-rule="nonzero" clip-path="url(#c086e092ef)"><g clip-rule="nonzero" clip-path="url(#fe4ecab12d)"><path style=" stroke:none;fill-rule:nonzero;fill:#545454;fill-opacity:1;" d="M 20.167969 23.894531 L 355.046875 23.894531 L 355.046875 351.105469 L 20.167969 351.105469 Z M 20.167969 23.894531 "/></g></g><g style="fill:#ffffff;fill-opacity:1;"><g transform="translate(53.609386, 263.654984)"><path style="stroke:none" d="M 81.171875 -67.84375 L 150.59375 -67.84375 L 150.59375 0 L 76.59375 0 C 60.9375 0 47.503906 -3.179688 36.296875 -9.546875 C 25.097656 -15.910156 16.515625 -24.5 10.546875 -35.3125 C 4.578125 -46.125 1.59375 -58.289062 1.59375 -71.8125 C 1.59375 -81.757812 3.582031 -91.039062 7.5625 -99.65625 C 11.539062 -108.28125 16.976562 -115.875 23.875 -122.4375 C 30.769531 -129.007812 38.722656 -134.117188 47.734375 -137.765625 C 56.753906 -141.410156 66.238281 -143.234375 76.1875 -143.234375 C 86.40625 -143.234375 95.988281 -141.507812 104.9375 -138.0625 C 113.894531 -134.613281 121.785156 -129.671875 128.609375 -123.234375 C 135.441406 -116.804688 140.8125 -109.210938 144.71875 -100.453125 C 148.632812 -91.703125 150.59375 -82.023438 150.59375 -71.421875 L 95.890625 -71.421875 C 95.492188 -76.460938 93.40625 -80.640625 89.625 -83.953125 C 85.84375 -87.265625 81.363281 -88.921875 76.1875 -88.921875 C 70.75 -88.921875 66.109375 -86.960938 62.265625 -83.046875 C 58.421875 -79.140625 56.5 -74.46875 56.5 -69.03125 C 56.5 -63.59375 58.421875 -58.953125 62.265625 -55.109375 C 66.109375 -51.265625 70.75 -49.34375 76.1875 -49.34375 L 95.890625 -49.34375 L 95.890625 -64.25 L 81.171875 -64.25 Z M 81.171875 -67.84375 "/></g></g><g style="fill:#545454;fill-opacity:1;"><g transform="translate(173.57599, 245.653057)"><path style="stroke:none" d="M 53.683594 9.417969 C 45.628906 9.417969 38.019531 7.890625 30.855469 4.839844 C 23.734375 1.808594 17.46875 -2.414062 12.054688 -7.828125 C 6.640625 -13.242188 2.417969 -19.511719 -0.617188 -26.632812 C -3.667969 -33.792969 -5.191406 -41.402344 -5.191406 -49.457031 C -5.191406 -57.640625 -3.664062 -65.285156 -0.609375 -72.394531 C 2.425781 -79.449219 6.644531 -85.679688 12.054688 -91.089844 C 17.46875 -96.5 23.734375 -100.726562 30.855469 -103.757812 C 38.019531 -106.808594 45.628906 -108.335938 53.683594 -108.335938 C 61.863281 -108.335938 69.507812 -106.804688 76.617188 -103.75 C 83.671875 -100.71875 89.902344 -96.496094 95.3125 -91.089844 C 100.71875 -85.679688 104.941406 -79.449219 107.972656 -72.394531 C 111.03125 -65.285156 112.558594 -57.640625 112.558594 -49.457031 C 112.558594 -41.402344 111.03125 -33.792969 107.980469 -26.632812 C 104.949219 -19.511719 100.726562 -13.242188 95.3125 -7.828125 C 89.902344 -2.421875 83.671875 1.800781 76.617188 4.832031 C 69.507812 7.886719 61.863281 9.417969 53.683594 9.417969 Z M 53.683594 -3.785156 C 60.050781 -3.785156 65.960938 -4.957031 71.40625 -7.296875 C 76.90625 -9.660156 81.765625 -12.949219 85.976562 -17.164062 C 90.183594 -21.371094 93.472656 -26.253906 95.835938 -31.804688 C 98.183594 -37.3125 99.355469 -43.199219 99.355469 -49.457031 C 99.355469 -55.828125 98.1875 -61.734375 95.84375 -67.179688 C 93.480469 -72.683594 90.191406 -77.539062 85.976562 -81.753906 C 81.765625 -85.964844 76.90625 -89.257812 71.40625 -91.621094 C 65.960938 -93.960938 60.050781 -95.132812 53.683594 -95.132812 C 47.421875 -95.132812 41.539062 -93.960938 36.027344 -91.613281 C 30.476562 -89.246094 25.597656 -85.960938 21.386719 -81.753906 C 17.175781 -77.539062 13.886719 -72.683594 11.519531 -67.179688 C 9.179688 -61.734375 8.007812 -55.828125 8.007812 -49.457031 C 8.007812 -43.199219 9.183594 -37.3125 11.527344 -31.804688 C 13.894531 -26.253906 17.179688 -21.371094 21.386719 -17.164062 C 25.597656 -12.957031 30.476562 -9.667969 36.027344 -7.304688 C 41.539062 -4.957031 47.421875 -3.785156 53.683594 -3.785156 Z M 53.683594 -51.835938 C 53.042969 -51.835938 52.484375 -51.597656 52.015625 -51.128906 C 51.542969 -50.65625 51.308594 -50.101562 51.308594 -49.457031 C 51.308594 -48.816406 51.542969 -48.261719 52.015625 -47.789062 C 52.484375 -47.320312 53.042969 -47.082031 53.683594 -47.082031 C 54.324219 -47.082031 54.878906 -47.320312 55.351562 -47.789062 C 55.824219 -48.261719 56.058594 -48.816406 56.058594 -49.457031 C 56.058594 -50.101562 55.824219 -50.65625 55.351562 -51.128906 C 54.878906 -51.597656 54.324219 -51.835938 53.683594 -51.835938 Z M 53.683594 -65.035156 C 57.96875 -65.035156 61.636719 -63.511719 64.6875 -60.460938 C 67.734375 -57.414062 69.261719 -53.746094 69.261719 -49.457031 C 69.261719 -45.171875 67.734375 -41.503906 64.6875 -38.453125 C 61.636719 -35.40625 57.96875 -33.882812 53.683594 -33.882812 C 49.394531 -33.882812 45.726562 -35.40625 42.679688 -38.453125 C 39.628906 -41.503906 38.105469 -45.171875 38.105469 -49.457031 C 38.105469 -53.746094 39.628906 -57.414062 42.679688 -60.460938 C 45.726562 -63.511719 49.394531 -65.035156 53.683594 -65.035156 Z M 53.683594 -65.035156 "/></g></g><g style="fill:#ffffff;fill-opacity:1;"><g transform="translate(173.57599, 245.653057)"><path style="stroke:none" d="M 53.6875 2.8125 C 46.53125 2.8125 39.78125 1.460938 33.4375 -1.234375 C 27.101562 -3.929688 21.53125 -7.6875 16.71875 -12.5 C 11.90625 -17.3125 8.148438 -22.882812 5.453125 -29.21875 C 2.753906 -35.550781 1.40625 -42.296875 1.40625 -49.453125 C 1.40625 -56.734375 2.753906 -63.507812 5.453125 -69.78125 C 8.148438 -76.0625 11.90625 -81.609375 16.71875 -86.421875 C 21.53125 -91.234375 27.101562 -94.988281 33.4375 -97.6875 C 39.78125 -100.382812 46.53125 -101.734375 53.6875 -101.734375 C 60.957031 -101.734375 67.734375 -100.382812 74.015625 -97.6875 C 80.296875 -94.988281 85.835938 -91.234375 90.640625 -86.421875 C 95.453125 -81.609375 99.207031 -76.0625 101.90625 -69.78125 C 104.613281 -63.507812 105.96875 -56.734375 105.96875 -49.453125 C 105.96875 -42.296875 104.613281 -35.550781 101.90625 -29.21875 C 99.207031 -22.882812 95.453125 -17.3125 90.640625 -12.5 C 85.835938 -7.6875 80.296875 -3.929688 74.015625 -1.234375 C 67.734375 1.460938 60.957031 2.8125 53.6875 2.8125 Z M 53.6875 -58.4375 C 51.21875 -58.4375 49.101562 -57.554688 47.34375 -55.796875 C 45.582031 -54.035156 44.703125 -51.921875 44.703125 -49.453125 C 44.703125 -46.992188 45.582031 -44.882812 47.34375 -43.125 C 49.101562 -41.363281 51.21875 -40.484375 53.6875 -40.484375 C 56.144531 -40.484375 58.253906 -41.363281 60.015625 -43.125 C 61.773438 -44.882812 62.65625 -46.992188 62.65625 -49.453125 C 62.65625 -51.921875 61.773438 -54.035156 60.015625 -55.796875 C 58.253906 -57.554688 56.144531 -58.4375 53.6875 -58.4375 Z M 53.6875 -58.4375 "/></g></g><g style="fill:#ffffff;fill-opacity:1;"><g transform="translate(188.369069, 135.787528)"><path style="stroke:none" d="M 8.1875 -22.015625 L 9.328125 -18.625 L 4.734375 -17.09375 L 9.40625 -3.15625 L 5.1875 -1.734375 L 0.515625 -15.671875 L -4.078125 -14.140625 L -5.21875 -17.53125 Z M 8.1875 -22.015625 "/></g></g><g style="fill:#ffffff;fill-opacity:1;"><g transform="translate(207.081567, 129.968159)"><path style="stroke:none" d="M 10.90625 -0.765625 L 6.625 -7.375 L 5.5625 -7.296875 L 6.046875 -0.421875 L 1.609375 -0.109375 L 0.3125 -18.34375 L 7.765625 -18.875 C 9.203125 -18.976562 10.445312 -18.8125 11.5 -18.375 C 12.550781 -17.945312 13.351562 -17.3125 13.90625 -16.46875 C 14.46875 -15.632812 14.785156 -14.675781 14.859375 -13.59375 C 14.953125 -12.382812 14.691406 -11.28125 14.078125 -10.28125 C 13.472656 -9.28125 12.507812 -8.535156 11.1875 -8.046875 L 15.90625 -1.125 Z M 5.34375 -10.4375 L 8.109375 -10.640625 C 8.910156 -10.691406 9.5 -10.929688 9.875 -11.359375 C 10.25 -11.796875 10.410156 -12.378906 10.359375 -13.109375 C 10.304688 -13.796875 10.0625 -14.320312 9.625 -14.6875 C 9.195312 -15.0625 8.582031 -15.222656 7.78125 -15.171875 L 5.015625 -14.96875 Z M 5.34375 -10.4375 "/></g></g><g style="fill:#ffffff;fill-opacity:1;"><g transform="translate(228.103249, 128.886827)"><path style="stroke:none" d="M 13.375 -0.546875 L 6.703125 -1.921875 L 4.96875 1.03125 L 0.40625 0.078125 L 10.59375 -16.484375 L 15.640625 -15.4375 L 18.40625 3.796875 L 13.78125 2.84375 Z M 12.9375 -4.125 L 12.078125 -11.140625 L 8.53125 -5.03125 Z M 12.9375 -4.125 "/></g></g><g style="fill:#ffffff;fill-opacity:1;"><g transform="translate(247.579605, 131.344455)"><path style="stroke:none" d="M 4.328125 -8.125 C 5.023438 -9.789062 6.003906 -11.125 7.265625 -12.125 C 8.535156 -13.125 9.960938 -13.71875 11.546875 -13.90625 C 13.140625 -14.101562 14.753906 -13.859375 16.390625 -13.171875 C 18.390625 -12.335938 19.878906 -11.09375 20.859375 -9.4375 C 21.847656 -7.78125 22.203125 -5.941406 21.921875 -3.921875 L 17.421875 -5.8125 C 17.367188 -6.65625 17.109375 -7.390625 16.640625 -8.015625 C 16.179688 -8.648438 15.5625 -9.128906 14.78125 -9.453125 C 13.519531 -9.984375 12.3125 -9.972656 11.15625 -9.421875 C 10 -8.867188 9.113281 -7.851562 8.5 -6.375 C 7.882812 -4.894531 7.785156 -3.550781 8.203125 -2.34375 C 8.617188 -1.144531 9.457031 -0.28125 10.71875 0.25 C 11.5 0.570312 12.273438 0.675781 13.046875 0.5625 C 13.828125 0.457031 14.535156 0.125 15.171875 -0.4375 L 19.671875 1.453125 C 18.429688 3.078125 16.878906 4.113281 15.015625 4.5625 C 13.148438 5.007812 11.21875 4.816406 9.21875 3.984375 C 7.582031 3.296875 6.269531 2.320312 5.28125 1.0625 C 4.300781 -0.195312 3.722656 -1.625 3.546875 -3.21875 C 3.367188 -4.820312 3.628906 -6.457031 4.328125 -8.125 Z M 4.328125 -8.125 "/></g></g><g style="fill:#ffffff;fill-opacity:1;"><g transform="translate(269.277644, 141.159973)"><path style="stroke:none" d="M 9.484375 7.6875 L 9.796875 -2.453125 L 4.71875 3.8125 L 1.25 1.015625 L 12.75 -13.1875 L 16.21875 -10.390625 L 11.171875 -4.15625 L 20.953125 -6.546875 L 25.015625 -3.25 L 13.875 -0.75 L 13.71875 11.109375 Z M 9.484375 7.6875 "/></g></g><g style="fill:#ffffff;fill-opacity:1;"><g transform="translate(286.132871, 156.15102)"><path style="stroke:none" d="M 18.0625 -6.671875 L 3.78125 4.734375 L 1 1.25 L 15.28125 -10.15625 Z M 18.0625 -6.671875 "/></g></g><g style="fill:#ffffff;fill-opacity:1;"><g transform="translate(293.847106, 165.534279)"><path style="stroke:none" d="M 7.828125 16.171875 L 5.890625 12.171875 L 12.78125 0.546875 L 2.640625 5.453125 L 0.703125 1.453125 L 17.15625 -6.5 L 19.09375 -2.5 L 12.15625 9.140625 L 22.34375 4.21875 L 24.28125 8.21875 Z M 7.828125 16.171875 "/></g></g><g style="fill:#ffffff;fill-opacity:1;"><g transform="translate(303.58048, 186.945088)"><path style="stroke:none" d="M 14.5 11.625 C 15.039062 11.195312 15.421875 10.65625 15.640625 10 C 15.867188 9.34375 15.921875 8.601562 15.796875 7.78125 C 15.566406 6.351562 14.914062 5.285156 13.84375 4.578125 C 12.769531 3.867188 11.453125 3.640625 9.890625 3.890625 C 8.234375 4.148438 7.007812 4.804688 6.21875 5.859375 C 5.425781 6.910156 5.15625 8.222656 5.40625 9.796875 C 5.570312 10.867188 5.988281 11.734375 6.65625 12.390625 C 7.332031 13.054688 8.207031 13.472656 9.28125 13.640625 L 8.390625 8.078125 L 11.640625 7.578125 L 13.171875 17.140625 L 9.078125 17.78125 C 7.910156 17.625 6.796875 17.226562 5.734375 16.59375 C 4.679688 15.96875 3.765625 15.097656 2.984375 13.984375 C 2.210938 12.878906 1.707031 11.570312 1.46875 10.0625 C 1.1875 8.28125 1.320312 6.628906 1.875 5.109375 C 2.425781 3.597656 3.335938 2.335938 4.609375 1.328125 C 5.878906 0.328125 7.40625 -0.3125 9.1875 -0.59375 C 10.976562 -0.875 12.628906 -0.734375 14.140625 -0.171875 C 15.648438 0.378906 16.90625 1.285156 17.90625 2.546875 C 18.914062 3.816406 19.5625 5.347656 19.84375 7.140625 C 20.1875 9.296875 19.953125 11.195312 19.140625 12.84375 C 18.335938 14.488281 17.046875 15.703125 15.265625 16.484375 Z M 14.5 11.625 "/></g></g></g></svg>